<?xml version="1.0" encoding="UTF-8" standalone="no"?>
<svg
   viewBox="0.1 0.4 49.999999 50.000001"
   version="1.1"
   id="svg10"
   sodipodi:docname="itl.svg"
   width="50"
   height="50"
   inkscape:version="1.1.1 (3bf5ae0d25, 2021-09-20)"
   xmlns:inkscape="http://www.inkscape.org/namespaces/inkscape"
   xmlns:sodipodi="http://sodipodi.sourceforge.net/DTD/sodipodi-0.dtd"
   xmlns="http://www.w3.org/2000/svg"
   xmlns:svg="http://www.w3.org/2000/svg">
  <defs
     id="defs14">
    <clipPath
       clipPathUnits="userSpaceOnUse"
       id="clipPath833">
      <g
         inkscape:label="Clip"
         id="use835">
        <path
           d="m 45.372956,49 c -3.8,0 -6.6,-2.2 -8,-4.4 -0.3,-0.6 -0.4,-1.3 0.2,-1.8 0.5,-0.4 1.3,-0.3 1.7,0.3 1.3,1.7 3.4,3.4 6.1,3.3 4.2,0 5.8,-3 5.8,-5.7 0,-4.9 -5.9,-4.9 -5.9,-4.9 -5,-0.3 -8,-3 -8,-7.1 0,-3.4 2.6,-7.1 7.9,-7.1 2.3,0 4.5,0.9 5.8,2.2 0.5,0.5 0.5,1.3 0,1.7 -0.5,0.5 -1.2,0.5 -2,-0.1 -1,-0.8 -2.2,-1.4 -3.8,-1.4 -4.3,0.1 -5.4,3.2 -5.3,4.7 0,4.3 5.3,4.6 5.3,4.6 4.6,0.3 8.7,2.2 8.7,7.4 0,4.7 -3.1,8.2 -8.5,8.3 z m -13.2,-3.1 c -0.7,0.4 -1.5,0.6 -2.4,0.5 -4.2,0 -5.8,-3 -5.8,-5.7 V 24.2 h 8 v 0 c 0.7,0 1.2,-0.5 1.2,-1.2 0,-0.7 -0.5,-1.2 -1.2,-1.2 v 0 h -8 v -8.3 c 0,-0.1 -0.1,-0.2 -0.1,-0.3 h -2.6 c 0,0.1 0,0.2 0,0.3 v 27.4 0 c 0,4.6 3.2,8 8.5,8.1 1.3,0 2.4,-0.3 3.4,-0.7 0.6,-0.3 0.9,-1 0.7,-1.6 -0.3,-0.7 -1,-1 -1.7,-0.8 z m -16.6,-31.3 c 0,-1 -0.8,-1.8 -1.8,-1.8 -1,0.1 -1.8,0.8 -1.8,1.8 0,1 0.8,1.8 1.8,1.8 1,0 1.8,-0.8 1.8,-1.8 z m -1.7,7 c -1.2,0 -1.3,0.7 -1.3,1 v 1.9 24.1 h 2.5 V 24.7 22.6 c 0,-0.2 -0.1,-1 -1.2,-1 z"
           id="path839"
           style="fill:#ffffff" />
      </g>
    </clipPath>
  </defs>
  <sodipodi:namedview
     id="namedview12"
     pagecolor="#505050"
     bordercolor="#eeeeee"
     borderopacity="1"
     inkscape:pageshadow="0"
     inkscape:pageopacity="0"
     inkscape:pagecheckerboard="0"
     showgrid="false"
     inkscape:zoom="9.2940418"
     inkscape:cx="14.90202"
     inkscape:cy="25.554006"
     inkscape:window-width="1920"
     inkscape:window-height="1027"
     inkscape:window-x="-8"
     inkscape:window-y="-8"
     inkscape:window-maximized="1"
     inkscape:current-layer="svg10" />
  <g
     stroke="none"
     stroke-width="1"
     fill="none"
     fill-rule="evenodd"
     id="g8"
     transform="matrix(0.78501238,0,0,0.78501238,0.02149876,0.08599505)">
    <path
       d="m 0.1,0.4 v 63.693263 l 63.693263,0 V 0.4 Z m 46.304455,50.857954 c -3.8,0 -6.6,-2.2 -8,-4.399999 -0.3,-0.6 -0.4,-1.3 0.2,-1.8 0.500001,-0.4 1.3,-0.3 1.7,0.300001 1.300001,1.699999 3.400001,3.399998 6.1,3.299997 4.2,0 5.800001,-3 5.800001,-5.699999 0,-4.900001 -5.9,-4.900001 -5.9,-4.900001 -5,-0.299999 -8,-2.999999 -8,-7.1 0,-3.399999 2.599999,-7.099999 7.899999,-7.099999 2.3,0 4.5,0.900001 5.8,2.200001 0.5,0.5 0.5,1.3 0,1.7 -0.5,0.499999 -1.2,0.499999 -1.999999,-0.1 -1.000001,-0.8 -2.200001,-1.400001 -3.800001,-1.400001 -4.3,0.1 -5.399999,3.2 -5.3,4.7 0,4.300001 5.3,4.6 5.3,4.6 4.6,0.3 8.7,2.200001 8.7,7.4 0,4.7 -3.099999,8.199999 -8.5,8.299999 z M 33.204456,48.157955 c -0.700001,0.4 -1.500001,0.599999 -2.400001,0.499998 -4.2,0 -5.8,-3 -5.8,-5.699999 V 26.457955 h 8 v 0 c 0.700001,0 1.2,-0.500001 1.2,-1.2 0,-0.700001 -0.499999,-1.200001 -1.2,-1.200001 v 0 h -8 v -8.3 c 0,-0.1 -0.1,-0.199999 -0.1,-0.3 h -2.599999 v 0.3 27.399999 0 c 0,4.6 3.199999,8 8.5,8.100001 1.3,0 2.4,-0.3 3.4,-0.7 0.599999,-0.300001 0.899999,-1 0.7,-1.6 -0.3,-0.7 -1.000001,-1 -1.7,-0.800001 z m -16.600001,-31.3 c 0,-1.000001 -0.8,-1.800001 -1.8,-1.800001 -1,0.1 -1.8,0.8 -1.8,1.800001 0,0.999999 0.8,1.799999 1.8,1.799999 1,0 1.8,-0.8 1.8,-1.799999 z m -1.7,6.999999 c -1.2,0 -1.3,0.7 -1.3,1.000001 v 1.899999 24.100001 h 2.5 v -23.9 -2.1 c 0,-0.200001 -0.1,-1.000001 -1.2,-1.000001 z"
       fill="#ee7203"
       id="path2"
       sodipodi:nodetypes="cccccsccccscssscccccsssscsccsssccsccccscccssscsssssccccss" />
  </g>
</svg>
