<?xml version="1.0" encoding="UTF-8" standalone="no"?>
<svg
   viewBox="0 0 160.00001 160"
   version="1.1"
   id="svg40"
   sodipodi:docname="logosintjansquire.svg"
   inkscape:version="1.1.1 (3bf5ae0d25, 2021-09-20)"
   width="160"
   height="160"
   xmlns:inkscape="http://www.inkscape.org/namespaces/inkscape"
   xmlns:sodipodi="http://sodipodi.sourceforge.net/DTD/sodipodi-0.dtd"
   xmlns="http://www.w3.org/2000/svg"
   xmlns:svg="http://www.w3.org/2000/svg">
  <sodipodi:namedview
     id="namedview42"
     pagecolor="#505050"
     bordercolor="#eeeeee"
     borderopacity="1"
     inkscape:pageshadow="0"
     inkscape:pageopacity="0"
     inkscape:pagecheckerboard="0"
     showgrid="false"
     inkscape:zoom="3.8177715"
     inkscape:cx="85.259162"
     inkscape:cy="49.898219"
     inkscape:window-width="1920"
     inkscape:window-height="1027"
     inkscape:window-x="-8"
     inkscape:window-y="-8"
     inkscape:window-maximized="1"
     inkscape:current-layer="svg40" />
  <defs
     id="defs4">
    <style
       id="style2">.cls-1,.cls-4{fill:#cf003d;}.cls-2{fill:#fff;}.cls-3{fill:none;stroke:#fff;stroke-width:3px;}.cls-3,.cls-4{fill-rule:evenodd;}</style>
    <clipPath
       clipPathUnits="userSpaceOnUse"
       id="clipPath833">
      <g
         inkscape:label="Clip"
         id="use835">
        <path
           d="m 45.372956,49 c -3.8,0 -6.6,-2.2 -8,-4.4 -0.3,-0.6 -0.4,-1.3 0.2,-1.8 0.5,-0.4 1.3,-0.3 1.7,0.3 1.3,1.7 3.4,3.4 6.1,3.3 4.2,0 5.8,-3 5.8,-5.7 0,-4.9 -5.9,-4.9 -5.9,-4.9 -5,-0.3 -8,-3 -8,-7.1 0,-3.4 2.6,-7.1 7.9,-7.1 2.3,0 4.5,0.9 5.8,2.2 0.5,0.5 0.5,1.3 0,1.7 -0.5,0.5 -1.2,0.5 -2,-0.1 -1,-0.8 -2.2,-1.4 -3.8,-1.4 -4.3,0.1 -5.4,3.2 -5.3,4.7 0,4.3 5.3,4.6 5.3,4.6 4.6,0.3 8.7,2.2 8.7,7.4 0,4.7 -3.1,8.2 -8.5,8.3 z m -13.2,-3.1 c -0.7,0.4 -1.5,0.6 -2.4,0.5 -4.2,0 -5.8,-3 -5.8,-5.7 V 24.2 h 8 v 0 c 0.7,0 1.2,-0.5 1.2,-1.2 0,-0.7 -0.5,-1.2 -1.2,-1.2 v 0 h -8 v -8.3 c 0,-0.1 -0.1,-0.2 -0.1,-0.3 h -2.6 c 0,0.1 0,0.2 0,0.3 v 27.4 0 c 0,4.6 3.2,8 8.5,8.1 1.3,0 2.4,-0.3 3.4,-0.7 0.6,-0.3 0.9,-1 0.7,-1.6 -0.3,-0.7 -1,-1 -1.7,-0.8 z m -16.6,-31.3 c 0,-1 -0.8,-1.8 -1.8,-1.8 -1,0.1 -1.8,0.8 -1.8,1.8 0,1 0.8,1.8 1.8,1.8 1,0 1.8,-0.8 1.8,-1.8 z m -1.7,7 c -1.2,0 -1.3,0.7 -1.3,1 v 1.9 24.1 h 2.5 V 24.7 22.6 c 0,-0.2 -0.1,-1 -1.2,-1 z"
           id="path839"
           style="fill:#ffffff" />
      </g>
    </clipPath>
  </defs>
  <path
     id="path2"
     style="display:inline;fill:#cf003d;fill-opacity:1;fill-rule:evenodd;stroke:none;stroke-width:2.5197"
     d="M 0,0 V 160 H 160 V 0 Z m 92.099609,14.351562 v 9.949219 h 7.470703 v 3.740235 h -7.441406 v 13.580078 c 0,4.39 0.800781,5.560547 3.800782,5.560547 1.228219,-0.01636 2.450215,-0.177633 3.640624,-0.480469 v 4.089844 c -1.69077,0.35413 -3.413175,0.535401 -5.140624,0.541015 -5.450001,0 -7.109376,-2.28 -7.109376,-8 V 28.041016 H 76.619141 c 0.49477,1.350895 0.732582,2.782395 0.701171,4.220703 V 50.810547 H 72.5 V 33.710938 c 0,-3.740001 -1.010234,-5.939454 -4.490234,-5.939454 -4.44,10e-7 -7.589844,4.440314 -7.589844,10.320313 v 12.779297 h -9.519531 v -2.830078 c 1.526,-0.397594 3.086456,-0.648731 4.660156,-0.75 V 28.091797 c -1.29,-0.21 -3.100156,-0.43125 -4.660156,-0.53125 v -2.839844 c 3.08794,-0.37244 6.200853,-0.495885 9.308593,-0.369141 0.008,1.860238 -0.118356,3.718627 -0.378906,5.560547 h 0.05859 c 1.51768,-3.836102 5.287456,-6.299994 9.410156,-6.15039 1.16239,-0.0169 2.319092,0.165422 3.419922,0.539062 h 14.570312 v -8.609375 z m 44.560551,6.408204 c 1.39,0.3 0.70968,2.58 1.92968,3 -0.04,-0.1775 -0.10667,-0.399297 -0.16796,-0.634766 -0.18376,-0.706406 -0.31071,-1.534297 0.52929,-1.654297 0.52,0.64 0.22922,2.158672 0.94922,2.638672 0.15,-0.63 -0.42031,-1.978906 0.67969,-1.628906 -0.11897,0.819146 0.10579,1.651049 0.62109,2.298828 1.07,-0.03 1,-1.199297 2,-1.279297 -4.73,11.51 -8.73047,26.869141 -8.73047,41.869141 4.18,2.73 2.02961,7.419921 -2.40039,8.169921 -0.13,1.8 1.03969,2.280001 0.92969,4 4,1.930003 3.22969,8.520938 5.42969,12.210938 0.26,6.63 3.8114,11.3607 5.6914,16.4707 0.21,0.56 -0.45984,0.7586 -0.33984,1.3086 0.55,2.52001 2.59,5.29015 3.5,7.91015 1.01,2.92 1.78961,5.63032 2.84961,8.57032 1.04,-0.32 0.99891,0.52968 1.62891,0.67968 0.56998,3.55 3.83999,7.75993 1.5,11.16993 -4.37003,0.51998 -3.95993,-3.62891 -5.16993,-6.62891 -1.28,-3.22 -4.04929,-3.56992 -2.52929,-6.91992 -2.86,-5.1 -5.67008,-10.24077 -9.33008,-14.55078 -1.55923,-0.18878 -3.14089,0.0174 -4.59961,0.59961 -2.26,-4.89002 -3.6,-10.710007 -6,-15.500005 -3.62,2.94 -1.51094,11.741325 -4.46094,15.361325 -1.77,-0.27 -2.65953,0.3693 -4.26953,0.2793 -0.5,3 -2.22925,5.46508 -3.48437,8.02539 -0.15685,0.32 -0.30662,0.64065 -0.44532,0.96484 v 0.002 c -0.13842,0.32365 -0.26719,0.65018 -0.38086,0.98047 v 0.002 c -0.11361,0.33028 -0.21467,0.66453 -0.29687,1.00391 -3e-4,10e-4 2.9e-4,0.003 0,0.004 -0.082,0.33878 -0.14731,0.68295 -0.19141,1.0332 -1.6e-4,0.001 1.6e-4,0.003 0,0.004 -0.0439,0.35034 -0.0664,0.70603 -0.0664,1.07031 v 0.002 c 0,0.001 -1e-5,0.003 0,0.004 0.003,1.09516 0.222,2.25814 0.74609,3.52344 -0.001,10e-4 -0.003,9.5e-4 -0.004,0.002 0.001,0.004 0.003,0.009 0.004,0.0117 -4.28,1.68 -4.28125,9.53844 -10.28125,8.39844 0,-0.004 0.002,-0.009 0.002,-0.0117 H 102.5 c 0.47,-4.94 3.68984,-7.08008 4.08984,-12.08008 0.12102,0.38428 0.34213,0.72942 0.64063,1 1.47,-4.46 2.0307,-9.87867 3.4707,-14.38867 -0.16,-0.64 -1.3,-0.32031 -1,-1.32031 0.89,-5.67 3.77891,-11.000001 5.12891,-17.000001 1.03,-4.55 0.61961,-8.711328 3.09961,-11.111328 -1.16,-0.06 0.68164,-1.08 -0.31836,-1 h -3.28125 c 0.82,-2.75 0.57015,-4.529219 1.41015,-7.199219 -1.55,-3.05 0.25032,-7.410469 -0.17968,-11.480469 -0.39,-3.62 -2.01047,-7.739844 -2.48047,-11.839844 -1.07,-9.13 -2.22,-16.830312 -6,-21.070312 1.18,-0.08 1.19125,1 2.28125,1 -0.0162,-0.08125 -0.0444,-0.150001 -0.0781,-0.212891 -0.23625,-0.440234 -0.81625,-0.516797 -0.5625,-1.435547 0.545,0.28 0.94719,0.563829 1.24219,0.791016 0.295,0.227187 0.48266,0.396016 0.59766,0.447266 0.22998,0.1025 0.16962,-0.269375 0.0996,-1.609375 1.13,0.19 0.83937,1.770312 1.60937,2.320312 1,-0.19 0.66016,-1.759219 1.66016,-1.949219 0.088,0.997392 -0.0344,2.002154 -0.35938,2.949219 1.16,-0.69 1.58102,-1.989531 3.29102,-1.269531 -5.47625,4.801875 -0.68095,11.893149 1.62109,18.519531 0.17708,0.509722 0.33871,1.016582 0.48047,1.519531 0.28352,1.005899 0.48414,1.997188 0.55664,2.960938 -0.045,-0.46625 -0.0513,-0.90604 -0.0234,-1.318359 0.41833,-6.18483 8.55391,-6.317188 9.89453,-0.851563 1.22688,-6.475625 8.25596,-14.595537 7.50196,-21.033203 -0.029,-0.247603 -0.0683,-0.491937 -0.1211,-0.734375 -0.26401,-1.212189 -0.83554,-2.357424 -1.81054,-3.412109 0.9,-1.210002 1.6,1.209609 2,0.349609 -0.44,-0.43 -0.30078,-1.430781 -0.30078,-2.300781 z M 25.109375,23.521484 c 2.35034,0.0085 4.69442,0.242657 7,0.699219 v 8.28125 H 28.5 c -0.29179,-1.538342 -0.505595,-3.090453 -0.640625,-4.650391 -0.98964,-0.181456 -1.99386,-0.271678 -3,-0.269531 -4.909999,0 -7.429687,2.249141 -7.429687,5.619141 0,7.81 16.470703,4.92 16.470703,16.25 0,6.480001 -5.081094,11.130859 -13.371094,11.130859 -2.594378,0.02 -5.181011,-0.28578 -7.699219,-0.910156 v -8.560547 h 3.529297 c 0.32,1.77 0.541172,3.369766 0.701172,4.759766 1.224236,0.299289 2.478156,0.46045 3.738281,0.480468 4.38,0 8,-1.761171 8,-6.201171 0,-8.13 -16.46875,-4.809922 -16.46875,-16.419922 0,-5.93 4.699297,-10.208985 12.779297,-10.208985 z m 18.097656,0.734375 c 1.05432,0.0044 2.10866,0.0018 3.16211,0.04492 l -0.0098,26.570313 h -9.458984 v -2.830078 c 1.52205,-0.397515 3.078607,-0.648656 4.648437,-0.75 v -19.25 c -1.28,-0.21 -3.098437,-0.429297 -4.648437,-0.529297 v -2.839844 c 2.0933,-0.250967 4.19837,-0.4248 6.30664,-0.416016 z m -9.927734,43.324219 h 13.259765 v 2.890625 c -1.226939,0.323683 -2.476591,0.554157 -3.738281,0.689453 v 23.09961 c 0,6.000004 -2.41,9.791014 -9,9.791014 -1.34559,0.0124 -2.68802,-0.1325 -4,-0.43164 v -4.279296 c 1.19314,0.381083 2.436963,0.579936 3.689453,0.589844 2.89,0 4.439454,-1.180003 4.439454,-6 V 71.160156 c -1.57104,-0.09632 -3.128721,-0.347543 -4.650391,-0.75 z m 26.191406,8.980469 c 7.7,0 9.888672,3.578906 9.888672,8.878906 v 14.630857 h 7.771484 V 80.890625 c -1.28,-0.21 -3.10039,-0.43125 -4.65039,-0.53125 v -2.839844 c 3.08464,-0.372867 6.194338,-0.496314 9.298828,-0.36914 0.007,1.85985 -0.116781,3.717886 -0.369141,5.560547 1.51768,-3.836101 5.287456,-6.299992 9.410156,-6.150391 6.040001,0 7.968907,3.8 7.878907,8.5 V 103.58984 H 93.890625 V 86.490234 c 0,-3.74 -1.02,-5.939453 -4.5,-5.939453 -4.43,0 -7.589844,4.43836 -7.589844,10.31836 V 103.57031 H 64.980469 v -5.230466 h -0.09961 c -1.52613,3.592626 -5.0983,5.882606 -9,5.769536 -4.38,0 -7.380859,-2.35032 -7.380859,-6.570318 0,-5.829999 5.95,-9.408749 16,-9.46875 v -2 c 0,-3.719997 -1.339922,-5.720703 -5.669922,-5.720703 -1.6611,-0.0052 -3.315542,0.210207 -4.919922,0.640625 -0.11,1.33 -0.370625,2.830079 -0.640625,4.330078 H 50.330078 V 78 c 2.94105,-1.003408 6.033535,-1.490408 9.140625,-1.439453 z M 17.589844,87.740234 h 12.060547 v 3.810547 H 17.589844 Z M 64.5,91.519531 c -8.82,0 -11.279297,2.620235 -11.279297,5.240235 0,2.25 1.598594,3.689454 4.058594,3.689454 C 61.609297,100.44922 64.5,96.17 64.5,92 Z m 16.179688,22.749999 c 0.884829,0.003 1.766809,0.10035 2.630859,0.29102 l -0.509766,1.6289 c -0.80774,-0.20407 -1.637583,-0.30772 -2.470703,-0.30859 -2.54,0 -3.999609,1.43875 -4.599609,4.71875 l -0.191407,1.09961 h 4.691407 l -0.310547,1.56055 h -4.689453 l -2.84961,14.91992 c -1,5.17 -3.28,7.14062 -7,7.14062 -0.89146,4.4e-4 -1.78027,-0.0971 -2.65039,-0.29101 l 0.5,-1.71875 c 0.80271,0.23052 1.6336,0.34818 2.46875,0.34961 2.53,0 4.000703,-1.35086 4.720703,-5.38086 l 2.880859,-15 h -3.5 l 0.339844,-1.5586 h 3.46875 l 0.191406,-1.06054 c 0.78,-4.32 3.098907,-6.39063 6.878907,-6.39063 z m -43.585938,0.10742 c 0.51883,-0.0114 1.037871,-0.0101 1.556641,0.004 l -4.050782,21.26953 c 0.84768,0.14699 1.702307,0.25064 2.560547,0.31055 L 37,137 c -1.53663,0.18093 -3.083989,0.25468 -4.630859,0.2207 l 4,-21.24023 c -0.69,-0.13 -1.71961,-0.25031 -2.59961,-0.32031 l 0.220703,-1.06055 c 1.03026,-0.12482 2.065996,-0.19913 3.103516,-0.22266 z m 50.076172,1.5625 -1.09961,5.75977 h 4.628907 l -0.269531,1.56055 h -4.628907 l -1.691406,8.91992 c -0.53002,2.78 -0.149688,3.53125 1.570313,3.53125 0.77749,0.0111 1.553436,-0.0728 2.310546,-0.25 l -0.06055,1.71875 c -0.88654,0.17217 -1.786474,0.26628 -2.689454,0.28125 -3.10005,0 -3.819453,-1.4318 -3.189453,-4.8418 l 1.808594,-9.35937 h -3 l 0.310547,-1.56055 h 3 l 1,-5.25977 z m -38.330078,5.50977 c 2.91,0 4.220703,1.50156 4.220703,3.35156 -0.06,3.06 -3.320625,4.97 -10.390625,5.25 -0.11958,0.73368 -0.182923,1.47542 -0.189453,2.21875 0,2.88 0.99875,3.57031 3.71875,3.57031 1.47694,-0.0122 2.936285,-0.32176 4.291015,-0.91015 v 1.66015 c -1.59169,0.62538 -3.29002,0.93453 -5,0.91016 -3.28,0 -5,-1.29086 -5,-4.88086 0,-5.7 2.93961,-11.16992 8.34961,-11.16992 z m 14.730468,0 c 2.91,0 4.21875,1.50156 4.21875,3.35156 -0.07,3.06 -3.318671,4.97 -10.388671,5.25 -0.1146,0.73429 -0.177913,1.47566 -0.189453,2.21875 0,2.88 0.99875,3.57031 3.71875,3.57031 1.47693,-0.0122 2.936285,-0.32176 4.291015,-0.91015 v 1.66015 c -1.59141,0.62637 -3.28994,0.93556 -5,0.91016 -3.28,0 -5,-1.29086 -5,-4.88086 0,-5.7 2.93961,-11.16992 8.349609,-11.16992 z M 48.519531,123 c -2.82,0 -4.689765,2.38016 -5.509765,5.41016 5.63,-0.22 7.919921,-1.3711 7.919922,-3.3711 0,-1.34 -0.930157,-2.03906 -2.410157,-2.03906 z M 63.25,123 c -2.82,0 -4.689766,2.38016 -5.509766,5.41016 5.63,-0.22 7.919922,-1.3711 7.919922,-3.3711 C 65.660156,123.69906 64.69,123 63.25,123 Z"
     sodipodi:nodetypes="ccccccccccsccccscccccsssccccccccccccccccccccccccccccccccccccccccsccccccccssccccccccccccccccccccccsscccccsscccssccccccccccssccccccsscsccccccccssccccsccccsccccscccccccccccssscccccscsccccccccccccssscccccccccccccccccccccccccccccccccccccccccccccccccscccccccssscccccccssscssscss" />
</svg>
