<?xml version="1.0" encoding="UTF-8" standalone="no"?>
<svg
   viewBox="0 0 296.77 169.02"
   version="1.1"
   id="svg40"
   sodipodi:docname="logosintjan.svg"
   inkscape:version="1.1.1 (3bf5ae0d25, 2021-09-20)"
   xmlns:inkscape="http://www.inkscape.org/namespaces/inkscape"
   xmlns:sodipodi="http://sodipodi.sourceforge.net/DTD/sodipodi-0.dtd"
   xmlns="http://www.w3.org/2000/svg"
   xmlns:svg="http://www.w3.org/2000/svg">
  <sodipodi:namedview
     id="namedview42"
     pagecolor="#505050"
     bordercolor="#eeeeee"
     borderopacity="1"
     inkscape:pageshadow="0"
     inkscape:pageopacity="0"
     inkscape:pagecheckerboard="0"
     showgrid="false"
     inkscape:zoom="3.5650505"
     inkscape:cx="148.52524"
     inkscape:cy="84.571032"
     inkscape:window-width="1920"
     inkscape:window-height="1017"
     inkscape:window-x="-8"
     inkscape:window-y="-8"
     inkscape:window-maximized="1"
     inkscape:current-layer="svg40" />
  <defs
     id="defs4">
    <style
       id="style2">.cls-1,.cls-4{fill:#cf003d;}.cls-2{fill:#fff;}.cls-3{fill:none;stroke:#fff;stroke-width:3px;}.cls-3,.cls-4{fill-rule:evenodd;}</style>
  </defs>
  <path
     id="polygon6"
     class="cls-1"
     d="M 27.929688,0 0,122.09961 37.550781,169.01953 296.76953,131.73047 296.46094,0 Z M 252.75977,12.259766 c 1.39,0.3 0.70968,2.58 1.92968,3 -0.04,-0.1775 -0.10667,-0.399297 -0.16797,-0.634766 -0.18375,-0.706406 -0.3107,-1.534297 0.5293,-1.654297 0.52,0.64 0.22922,2.158672 0.94922,2.638672 0.15,-0.63 -0.42031,-1.978906 0.67969,-1.628906 a 3,3 0 0 0 0.62109,2.298828 c 1.07,-0.03 1,-1.199297 2,-1.279297 -4.73,11.51 -8.73047,26.869141 -8.73047,41.869141 4.18,2.73 2.02961,7.419921 -2.40039,8.169921 -0.13,1.8 1.03969,2.280001 0.92969,4 4,1.930003 3.22969,8.520938 5.42969,12.210938 0.26,6.63 3.8114,11.360703 5.6914,16.470703 0.21,0.56 -0.45984,0.758594 -0.33984,1.308594 0.55,2.520003 2.59,5.290153 3.5,7.910153 1.01,2.92 1.78961,5.63032 2.84961,8.57032 1.04,-0.32 0.99891,0.52968 1.62891,0.67968 0.56998,3.55 3.83999,7.75993 1.5,11.16993 -4.37003,0.51998 -3.95993,-3.62891 -5.16993,-6.62891 -1.28,-3.22 -4.04929,-3.56992 -2.52929,-6.91992 -2.86,-5.1 -5.67008,-10.24078 -9.33008,-14.550784 a 9.37,9.37 0 0 0 -4.59961,0.599609 c -2.26,-4.89 -3.6,-10.71 -6,-15.5 -3.62,2.94 -1.51094,11.741328 -4.46094,15.361328 C 235.49953,99.450703 234.61,100.09 233,100 c -0.5,3 -2.22926,5.46508 -3.48438,8.02539 -0.15685,0.32 -0.30661,0.64065 -0.44531,0.96484 v 0.002 c -0.13842,0.32365 -0.26719,0.65018 -0.38086,0.98047 v 0.002 c -0.11361,0.33028 -0.21467,0.66453 -0.29687,1.00391 -3e-4,10e-4 2.9e-4,0.003 0,0.004 -0.082,0.33878 -0.14731,0.68294 -0.19141,1.0332 -1.6e-4,0.001 1.6e-4,0.003 0,0.004 -0.0439,0.35034 -0.067,0.70603 -0.0664,1.07031 v 0.002 c 0,0.001 -1e-5,0.003 0,0.004 0.003,1.09516 0.222,2.25814 0.74609,3.52344 -0.001,10e-4 -0.003,10e-4 -0.004,0.002 0.001,0.004 0.003,0.007 0.004,0.01 -4.28,1.68 -4.28125,9.53844 -10.28125,8.39844 0,-0.004 0.002,-0.007 0.002,-0.01 h -0.002 c 0.47,-4.94 3.68984,-7.08008 4.08984,-12.08008 a 2.27,2.27 0 0 0 0.64063,1 c 1.47,-4.46 2.0307,-9.87867 3.4707,-14.388669 -0.16,-0.64 -1.3,-0.320312 -1,-1.320312 0.89,-5.67 3.77891,-11 5.12891,-17 1.03,-4.55 0.61961,-8.711328 3.09961,-11.111328 -1.16,-0.06 0.68164,-1.08 -0.31836,-1 h -3.28125 c 0.82,-2.75 0.57015,-4.529219 1.41015,-7.199219 -1.55,-3.05 0.25032,-7.410469 -0.17968,-11.480469 -0.39,-3.62 -2.01047,-7.739844 -2.48047,-11.839844 -1.07,-9.13 -2.22,-16.830312 -6,-21.070312 1.18,-0.08 1.19125,1 2.28125,1 -0.0162,-0.08125 -0.0444,-0.150001 -0.0781,-0.212891 -0.23625,-0.440234 -0.81625,-0.516797 -0.5625,-1.435547 0.545,0.28 0.94719,0.563829 1.24219,0.791016 0.295,0.227187 0.48266,0.396016 0.59766,0.447266 0.22998,0.1025 0.16961,-0.269375 0.0996,-1.609375 1.13,0.19 0.83937,1.770312 1.60937,2.320312 1,-0.19 0.66016,-1.759219 1.66016,-1.949219 a 7.15,7.15 0 0 1 -0.35938,2.949219 c 1.16,-0.69 1.58102,-1.989531 3.29102,-1.269531 -5.47625,4.801875 -0.68095,11.893149 1.62109,18.519531 0.17708,0.509722 0.33871,1.016582 0.48047,1.519531 0.28352,1.005899 0.48414,1.997188 0.55664,2.960938 -0.045,-0.46625 -0.0513,-0.906039 -0.0234,-1.318359 0.41833,-6.184829 8.55391,-6.317188 9.89453,-0.851563 1.22688,-6.475625 8.25596,-14.595537 7.50196,-21.033203 -0.029,-0.247603 -0.0683,-0.491937 -0.1211,-0.734375 -0.26401,-1.212189 -0.83554,-2.357423 -1.81054,-3.412109 0.9,-1.210002 1.6,1.209609 2,0.349609 -0.44,-0.43 -0.30078,-1.430781 -0.30078,-2.300781 z M 38.550781,42.640625 h 33.75 v 3.808594 h -33.75 z M 118,54.150391 v 9.949218 h 7.4707 v 3.740235 h -7.4414 v 13.580078 c 0,4.39 0.80078,5.560547 3.80078,5.560547 A 15.61,15.61 0 0 0 125.4707,86.5 v 4.089844 a 25.48,25.48 0 0 1 -5.14062,0.541015 c -5.45,0 -7.10938,-2.28 -7.10938,-8 V 67.839844 h -10.70117 a 11.54,11.54 0 0 1 0.70117,4.220703 V 90.609375 H 98.400391 V 73.509766 c 0,-3.74 -1.010235,-5.939454 -4.490235,-5.939454 -4.44,10e-7 -7.589844,4.440313 -7.589844,10.320313 v 12.779297 h -9.519531 v -2.830078 a 24.8,24.8 0 0 1 4.660157,-0.75 V 67.890625 c -1.290003,-0.21 -3.100157,-0.43125 -4.660157,-0.53125 v -2.839844 a 58,58 0 0 1 9.308594,-0.36914 38.48,38.48 0 0 1 -0.378906,5.560547 h 0.05859 a 9.74,9.74 0 0 1 9.410157,-6.150391 10.18,10.18 0 0 1 3.419922,0.539062 h 14.570312 v -8.609375 z m 23.2793,0.429687 h 13.25976 v 2.890625 a 25.18,25.18 0 0 1 -3.73828,0.689453 v 23.09961 c 0,6 -2.41,9.791015 -9,9.791015 a 17.28,17.28 0 0 1 -4,-0.43164 v -4.279297 a 12.45,12.45 0 0 0 3.68945,0.589844 c 2.89,0 4.43946,-1.180002 4.43946,-6 V 58.160156 a 23.91,23.91 0 0 1 -4.65039,-0.75 z m -90.269534,8.740234 a 36.72,36.72 0 0 1 7,0.699219 v 8.28125 h -3.609375 a 46.45,46.45 0 0 1 -0.640625,-4.65039 16.44,16.44 0 0 0 -3,-0.269532 c -4.91,0 -7.429688,2.249141 -7.429688,5.619141 0,7.81 16.470703,4.92 16.470703,16.25 0,6.48 -5.081094,11.13086 -13.371093,11.13086 a 31,31 0 0 1 -7.699219,-0.910157 v -8.560547 h 3.529297 c 0.32,1.77 0.541172,3.369766 0.701172,4.759766 a 16.87,16.87 0 0 0 3.738281,0.480469 c 4.38,0 8,-1.761172 8,-6.201172 0,-8.13 -16.46875,-4.809922 -16.46875,-16.419922 0,-5.93 4.699297,-10.208985 12.779297,-10.208985 z M 167.4707,63.560547 c 7.7,0 9.88868,3.578906 9.88868,8.878906 v 14.630859 h 7.77148 V 67.890625 c -1.28,-0.21 -3.10039,-0.43125 -4.65039,-0.53125 v -2.839844 a 57.78,57.78 0 0 1 9.29883,-0.36914 39.94,39.94 0 0 1 -0.36914,5.560547 9.74,9.74 0 0 1 9.41015,-6.150391 c 6.04,0 7.96891,3.8 7.87891,8.5 v 18.529297 h -4.8086 v -17.09961 c 0,-3.74 -1.02,-5.939453 -4.5,-5.939453 -4.43,0 -7.58984,4.43836 -7.58984,10.31836 v 12.701171 h -16.82031 v -5.230468 h -0.0996 a 9.48,9.48 0 0 1 -9,5.769531 c -4.38,0 -7.38086,-2.350313 -7.38086,-6.570313 0,-5.829999 5.95,-9.408749 16,-9.46875 v -2 c 0,-3.719997 -1.33992,-5.720703 -5.66992,-5.720703 a 18.76,18.76 0 0 0 -4.91992,0.640625 c -0.11,1.33 -0.37063,2.830078 -0.64063,4.330078 h -2.93945 V 65 a 26.94,26.94 0 0 1 9.14062,-1.439453 z m -98.363278,0.494141 a 59.15,59.15 0 0 1 3.162109,0.04492 l -0.0098,26.570313 h -9.458985 v -2.830078 a 24.69,24.69 0 0 1 4.648438,-0.75 v -19.25 c -1.28,-0.21 -3.098438,-0.429297 -4.648438,-0.529297 v -2.839844 a 59.15,59.15 0 0 1 6.306641,-0.416015 z m 56.482418,10.685546 h 12.06055 v 3.810547 H 125.58984 Z M 172.5,78.519531 c -8.82,0 -11.2793,2.620235 -11.2793,5.240235 0,2.25 1.5986,3.689453 4.0586,3.689453 4.33,0 7.2207,-4.279219 7.2207,-8.449219 z m -59.82031,28.749999 a 12.39,12.39 0 0 1 2.63086,0.29102 l -0.50977,1.6289 a 10.13,10.13 0 0 0 -2.4707,-0.30859 c -2.54,0 -3.99961,1.43875 -4.59961,4.71875 l -0.19141,1.09961 h 4.69141 l -0.31055,1.56055 h -4.68945 l -2.84961,14.91992 c -1,5.17 -3.28,7.14062 -7.000001,7.14062 a 12.16,12.16 0 0 1 -2.65039,-0.29101 l 0.5,-1.71875 a 9,9 0 0 0 2.46875,0.34961 c 2.530001,0 4.000701,-1.35086 4.720701,-5.38086 l 2.88086,-15 h -3.5 l 0.33984,-1.5586 h 3.46876 l 0.1914,-1.06054 c 0.78,-4.32 3.09891,-6.39063 6.87891,-6.39063 z m -43.58594,0.10742 a 31.8,31.8 0 0 1 1.556641,0.004 l -4.050782,21.26953 a 25.3,25.3 0 0 0 2.560547,0.31055 L 69,130 a 33.34,33.34 0 0 1 -4.630859,0.2207 l 4,-21.24023 c -0.69,-0.13 -1.71961,-0.25031 -2.59961,-0.32031 l 0.220703,-1.06055 a 31.8,31.8 0 0 1 3.103516,-0.22266 z m 50.07617,1.5625 -1.09961,5.75977 h 4.62891 l -0.26953,1.56055 h -4.62891 l -1.6914,8.91992 c -0.53002,2.78 -0.14969,3.53125 1.57031,3.53125 a 9.54,9.54 0 0 0 2.31054,-0.25 l -0.0605,1.71875 a 15.45,15.45 0 0 1 -2.68946,0.28125 c -3.10005,0 -3.81945,-1.4318 -3.18945,-4.8418 l 1.8086,-9.35937 h -3 l 0.31054,-1.56055 h 3 l 1,-5.25977 z m -38.330076,5.50977 c 2.91,0 4.220703,1.50156 4.220703,3.35156 -0.06,3.06 -3.320625,4.97 -10.390625,5.25 a 14.59,14.59 0 0 0 -0.189453,2.21875 c 0,2.88 0.99875,3.57031 3.71875,3.57031 a 11,11 0 0 0 4.291015,-0.91015 v 1.66015 a 13.16,13.16 0 0 1 -5,0.91016 c -3.28,0 -5,-1.29086 -5,-4.88086 0,-5.7 2.93961,-11.16992 8.34961,-11.16992 z m 14.730468,0 c 2.910001,0 4.218751,1.50156 4.21875,3.35156 -0.07,3.06 -3.318671,4.97 -10.388671,5.25 a 16,16 0 0 0 -0.189453,2.21875 c 0,2.88 0.99875,3.57031 3.71875,3.57031 a 11,11 0 0 0 4.291015,-0.91015 v 1.66015 a 13.12,13.12 0 0 1 -5,0.91016 c -3.28,0 -5,-1.29086 -5,-4.88086 0,-5.7 2.939611,-11.16992 8.349609,-11.16992 z M 80.519531,116 c -2.82,0 -4.689765,2.38016 -5.509765,5.41016 5.63,-0.22 7.919922,-1.3711 7.919922,-3.3711 0,-1.34 -0.930157,-2.03906 -2.410157,-2.03906 z M 95.25,116 c -2.82,0 -4.689766,2.38016 -5.509766,5.41016 5.63,-0.22 7.919922,-1.3711 7.919922,-3.3711 C 97.660156,116.69906 96.69,116 95.25,116 Z" />
</svg>
