<?xml version="1.0" encoding="UTF-8" standalone="no"?>
<!-- Created with Inkscape (http://www.inkscape.org/) -->

<svg
   width="50mm"
   height="50mm"
   viewBox="0 0 50 50"
   version="1.1"
   id="svg5"
   inkscape:version="1.1.1 (3bf5ae0d25, 2021-09-20)"
   sodipodi:docname="OLC.svg"
   xmlns:inkscape="http://www.inkscape.org/namespaces/inkscape"
   xmlns:sodipodi="http://sodipodi.sourceforge.net/DTD/sodipodi-0.dtd"
   xmlns="http://www.w3.org/2000/svg"
   xmlns:svg="http://www.w3.org/2000/svg">
  <sodipodi:namedview
     id="namedview7"
     pagecolor="#505050"
     bordercolor="#eeeeee"
     borderopacity="1"
     inkscape:pageshadow="0"
     inkscape:pageopacity="0"
     inkscape:pagecheckerboard="0"
     inkscape:document-units="mm"
     showgrid="false"
     inkscape:zoom="3.0003928"
     inkscape:cx="131.14949"
     inkscape:cy="71.157349"
     inkscape:window-width="1920"
     inkscape:window-height="1027"
     inkscape:window-x="-8"
     inkscape:window-y="-8"
     inkscape:window-maximized="1"
     inkscape:current-layer="svg5" />
  <defs
     id="defs2" />
  <path
     id="rect846"
     style="fill:#d31145;fill-opacity:1;stroke:#d31145;stroke-width:0.0946269;stroke-linecap:round;stroke-linejoin:round;stroke-opacity:1"
     d="M 0,0 V 188.97638 H 188.97638 V 0 Z m 47.365234,66.216797 c 3.88889,0 7.376085,0.645433 10.462891,1.933594 3.111112,1.263856 5.748914,3.074063 7.912109,5.43164 2.211807,2.430492 3.901693,5.407427 5.06836,8.931641 1.190972,3.524213 1.785156,7.522035 1.785156,11.99414 0,4.472106 -0.606987,8.482728 -1.822266,12.031248 -1.190972,3.52422 -2.868055,6.46469 -5.03125,8.82227 -2.236111,2.4548 -4.884764,4.30342 -7.947265,5.54297 -3.038196,1.23955 -6.514539,1.85937 -10.427735,1.85937 -3.815973,0 -7.292316,-0.63263 -10.427734,-1.89648 -3.111112,-1.26386 -5.759765,-3.09967 -7.947266,-5.50586 -2.1875,-2.40619 -3.877386,-5.35947 -5.068359,-8.85938 -1.166667,-3.49991 -1.75,-7.497727 -1.75,-11.994138 0,-4.423495 0.583333,-8.384856 1.75,-11.884765 1.166667,-3.524214 2.869357,-6.537609 5.105469,-9.041016 2.138889,-2.381882 4.787542,-4.204894 7.947265,-5.46875 3.184029,-1.263856 6.647569,-1.896484 10.390625,-1.896484 z m 101.025386,0.146484 c 2.91667,0 5.82249,0.351798 8.71485,1.056641 2.91667,0.704843 6.14865,1.944491 9.69726,3.71875 v 8.568359 h -0.54687 c -2.98958,-2.503407 -5.95551,-4.326418 -8.89648,-5.46875 -2.94098,-1.142331 -6.08724,-1.71289 -9.44141,-1.71289 -2.74653,0 -5.2257,0.448374 -7.4375,1.347656 -2.1875,0.874977 -4.1454,2.247662 -5.87109,4.119141 -1.67709,1.822869 -2.98959,4.132668 -3.9375,6.927734 -0.92362,2.770761 -1.38477,5.979262 -1.38477,9.625 0,3.815873 0.51042,7.097298 1.53125,9.843748 1.04514,2.74646 2.38129,4.98138 4.00976,6.70703 1.70139,1.79857 3.68295,3.13674 5.94336,4.01172 2.28473,0.85067 4.69098,1.27539 7.21875,1.27539 3.4757,0 6.73329,-0.59617 9.77149,-1.78711 3.03819,-1.19094 5.88194,-2.97749 8.53125,-5.35937 h 0.50976 v 8.45898 c -1.3368,0.58332 -2.55273,1.13022 -3.64648,1.64063 -1.06944,0.5104 -2.47852,1.0445 -4.22852,1.60351 -1.48263,0.4618 -3.0996,0.85201 -4.84961,1.16797 -1.72569,0.34027 -3.63237,0.50977 -5.72265,0.50977 -3.9375,0 -7.52322,-0.54691 -10.75586,-1.64063 -3.20833,-1.11802 -6.00282,-2.85531 -8.38477,-5.21289 -2.33333,-2.30897 -4.15625,-5.23859 -5.46875,-8.78711 -1.3125,-3.57282 -1.96875,-7.716483 -1.96875,-12.431638 0,-4.472106 0.63065,-8.469927 1.89454,-11.994141 1.26388,-3.524213 3.0868,-6.501148 5.46874,-8.93164 2.30903,-2.357578 5.09267,-4.156934 8.34961,-5.396485 3.28126,-1.239551 6.91428,-1.859375 10.90039,-1.859375 z m -64.347651,0.984375 h 7.21875 V 115.2168 h 27.125001 v 6.41601 H 84.042969 Z m -36.640625,5.103516 c -5.517363,0 -9.855902,1.919588 -13.015625,5.759766 -3.135418,3.815872 -4.703125,9.248447 -4.703125,16.296874 0,7.121338 1.604165,12.577578 4.8125,16.369138 3.208334,3.76727 7.510415,5.65235 12.90625,5.65235 5.395835,0 9.685112,-1.88508 12.86914,-5.65235 3.208335,-3.79156 4.8125,-9.2478 4.8125,-16.369138 0,-7.048427 -1.580511,-12.481002 -4.740234,-16.296874 -3.159723,-3.840178 -7.472655,-5.759766 -12.941406,-5.759766 z"
     transform="scale(0.26458333)"
     sodipodi:nodetypes="cccccscccscccscscscccssccccsscccscccssccccccscccssccscccccccscscscscs" />
</svg>
