<?xml version="1.0" encoding="UTF-8" standalone="no"?>
<svg
   viewBox="0 2.632 49.999999 50.000002"
   version="1.1"
   id="svg3"
   sodipodi:docname="som.svg"
   inkscape:version="1.1.1 (3bf5ae0d25, 2021-09-20)"
   width="50"
   height="50"
   xmlns:inkscape="http://www.inkscape.org/namespaces/inkscape"
   xmlns:sodipodi="http://sodipodi.sourceforge.net/DTD/sodipodi-0.dtd"
   xmlns="http://www.w3.org/2000/svg"
   xmlns:svg="http://www.w3.org/2000/svg">
  <defs
     id="defs7" />
  <sodipodi:namedview
     id="namedview5"
     pagecolor="#505050"
     bordercolor="#eeeeee"
     borderopacity="1"
     inkscape:pageshadow="0"
     inkscape:pageopacity="0"
     inkscape:pagecheckerboard="0"
     showgrid="false"
     inkscape:zoom="16"
     inkscape:cx="28.09375"
     inkscape:cy="16.90625"
     inkscape:window-width="1920"
     inkscape:window-height="1027"
     inkscape:window-x="-8"
     inkscape:window-y="-8"
     inkscape:window-maximized="1"
     inkscape:current-layer="svg3" />
  <path
     id="rect137"
     style="display:inline;fill:#005eb5;fill-rule:evenodd;stroke-width:1.54127"
     inkscape:label="rect137"
     d="m 0,2.632 v 50 h 50 v -50 z m 21.507812,1.8242188 h 3.488282 3.490234 c 0.74,0 1.337891,0.5988906 1.337891,1.3378906 l 0.0078,5.8984376 c 0,0.742 0.602656,1.34375 1.347657,1.34375 l 7.197265,-0.01367 c 0.742,0 1.339844,0.603703 1.339844,1.345703 l -0.0078,5.154297 c 0,0.74 0.603704,1.345703 1.345704,1.345703 l 3.832031,-0.0039 c 0.735001,-0.002 1.33789,0.599844 1.33789,1.339844 v 10.488281 c 0,0.75 -0.596985,1.345703 -1.333984,1.345703 h -3.84375 c -0.739001,0 -1.34375,0.609563 -1.34375,1.351562 l 0.0098,5.523438 c 0,0.742 -0.593938,1.34375 -1.335938,1.34375 H 35.8125 c -0.74,0 -1.339844,0.602609 -1.339844,1.349609 l -0.0039,5.855469 c 0,0.739 -0.607844,1.34375 -1.339844,1.34375 H 27.67774 c -0.742,0 -1.335937,-0.60475 -1.335937,-1.34375 l 0.0078,-5.849609 c -0.002,-0.748 -0.602844,-1.353516 -1.339843,-1.353516 h -0.0059 -0.0098 c -0.74,0 -1.339844,0.605516 -1.339844,1.353516 l 0.0098,5.849609 c 1e-6,0.742 -0.594983,1.345703 -1.333984,1.345703 h -5.453125 c -0.730999,0 -1.337891,-0.60375 -1.337891,-1.34375 l -0.0078,-5.853515 c 0,-0.747 -0.602845,-1.351563 -1.339844,-1.351563 H 11.625 c -0.742,0 -1.333984,-0.59875 -1.333984,-1.34375 l 0.0059,-5.523437 c 0,-0.743 -0.6017969,-1.347657 -1.3417969,-1.347657 h -3.84375 c -0.739,0 -1.3359375,-0.597656 -1.3359375,-1.347656 V 22.212078 c 0,-0.742 0.5999375,-1.344697 1.3359375,-1.341797 h 3.8339844 c 0.739,0 1.3417965,-0.60175 1.3417965,-1.34375 l -0.0098,-5.15625 c 0,-0.74 0.599797,-1.34375 1.341797,-1.34375 l 7.197265,0.0098 c 0.745,0 1.345703,-0.59975 1.345703,-1.34375 l 0.0059,-5.8964845 c 0,-0.74 0.599844,-1.3398437 1.339843,-1.3398437 z M 36.677734,27.41325 c -0.392875,-0.0056 -0.753733,0.07886 -0.865234,0.318359 -0.692,1.487001 -1.660282,3.778125 -4.363281,5.578125 -2.53,1.684 -5.281813,2.607651 -9.007813,2.681641 -0.417,0.007 -0.353515,0.371094 -0.353515,0.371094 l -0.06055,0.652343 c 0,10e-7 0.0075,0.297547 0.355468,0.310547 2.250001,0.095 7.525517,-0.133952 10.978516,-2.376953 3.37,-2.188999 4.496361,-4.2215 5.19336,-5.6875 0.297,-0.624 -0.355455,-1.409858 -0.814454,-1.630859 -0.244,-0.117 -0.669625,-0.211172 -1.0625,-0.216797 z"
     sodipodi:nodetypes="cccccscsccccccccssssccssccssccscsccssccssccsssscsccccccsscccccccccssc" />
</svg>
