<?xml version="1.0" encoding="UTF-8" standalone="no"?>
<svg
   viewBox="118.681 0 50.000001 50.000001"
   version="1.1"
   id="svg21"
   sodipodi:docname="zrm.svg"
   inkscape:version="1.1.1 (3bf5ae0d25, 2021-09-20)"
   width="50"
   height="50"
   xmlns:inkscape="http://www.inkscape.org/namespaces/inkscape"
   xmlns:sodipodi="http://sodipodi.sourceforge.net/DTD/sodipodi-0.dtd"
   xmlns="http://www.w3.org/2000/svg"
   xmlns:svg="http://www.w3.org/2000/svg">
  <sodipodi:namedview
     id="namedview23"
     pagecolor="#505050"
     bordercolor="#eeeeee"
     borderopacity="1"
     inkscape:pageshadow="0"
     inkscape:pageopacity="0"
     inkscape:pagecheckerboard="0"
     showgrid="false"
     inkscape:zoom="19.030167"
     inkscape:cx="22.569429"
     inkscape:cy="21.413369"
     inkscape:window-width="1920"
     inkscape:window-height="1027"
     inkscape:window-x="-8"
     inkscape:window-y="-8"
     inkscape:window-maximized="1"
     inkscape:current-layer="svg21"
     width="50px" />
  <defs
     id="defs4">
    <clipPath
       clipPathUnits="userSpaceOnUse"
       id="clipPath4317">
      <path
         d="M 0,841.89 H 595.275 V 0 H 0 Z"
         id="path4319" />
    </clipPath>
  </defs>
  <path
     id="rect49"
     style="fill:#ef2f2c;fill-opacity:1;fill-rule:evenodd"
     d="M 0,0 V 50 H 50 V 0 Z m 42.244141,5.5 h 1.140625 c 0,6.039599 -1.632669,11.128676 -4.855469,15.126953 -3.04737,3.780269 -7.620057,6.706782 -13.591797,8.699219 L 24.560547,28.248047 C 36.459087,24.282885 42.244141,16.841594 42.244141,5.5 Z m 2.789062,0 h 1.425781 c 0,4.955073 -0.994198,9.34217 -2.955078,13.103516 0.7033,2.014119 1.091797,4.178994 1.091797,6.433593 0,2.597186 -0.511521,5.072648 -1.431641,7.337891 H 26 L 25.462891,30.835938 C 38.628081,26.331863 45.033203,18.042023 45.033203,5.5 Z m -19.947265,0.027344 c 5.424559,0 10.334127,2.2173235 13.867187,5.7910152 H 11.220703 C 14.756133,7.7446673 19.661387,5.5273438 25.085938,5.5273438 Z M 6.8574219,18.089844 H 22.884766 l 0.46875,1.496094 C 10.989386,24.175955 4.9667969,32.340774 4.9667969,44.5 H 3.5410156 c 0,-5.033131 1.024495,-9.479693 3.046875,-13.28125 -0.64968,-1.942369 -1.0097656,-4.019686 -1.0097656,-6.181641 0,-2.448166 0.4553669,-4.789252 1.2792969,-6.947265 z m 16.9726561,3.017578 0.341797,1.089844 C 13.130775,26.263351 7.7539062,33.569982 7.7539062,44.5 H 6.6152344 c 0,-6.040387 1.6334587,-11.130252 4.8554686,-15.126953 2.83291,-3.514952 6.987255,-6.290928 12.359375,-8.265625 z M 11.625,39.097656 h 26.925781 c -3.50191,3.341885 -8.23939,5.396485 -13.46289,5.396485 -5.22192,0 -9.962551,-2.0546 -13.462891,-5.396485 z"
     transform="translate(118.681)"
     sodipodi:nodetypes="ccccccccccccccsccccsccsccccccscccccccccsc" />
</svg>
